<svg viewBox="0 0 32 32" enable-background="new 0 0 32 32" version="1.1" xml:space="preserve" xmlns="http://www.w3.org/2000/svg" xmlns:xlink="http://www.w3.org/1999/xlink" fill="#000000"><g id="SVGRepo_bgCarrier" stroke-width="0"></g><g id="SVGRepo_tracerCarrier" stroke-linecap="round" stroke-linejoin="round"></g><g id="SVGRepo_iconCarrier"> <g id="Energy20"></g> <g id="Energy19"></g> <g id="Energy18"></g> <g id="Energy17"></g> <g id="Energy16"></g> <g id="Energy15"></g> <g id="Energy14"></g> <g id="Energy13"></g> <g id="Energy12"></g> <g id="Energy11"></g> <g id="Energy10"> <g> <path d="M26,11c0,2.53-0.95,4.94-2.67,6.8C22.47,18.72,22,19.86,22,21c0,0.55-0.45,1-1,1H11c-0.55,0-1-0.45-1-1 c0-1.14-0.47-2.28-1.33-3.2C6.93,15.93,5.98,13.48,6,10.93C6.04,5.6,10.4,1.15,15.72,1H16C21.51,1,26,5.49,26,11z" fill="#FFB841"></path> </g> <g> <path d="M20,27c0,0.35-0.04,0.68-0.13,1c-0.44,1.73-2.01,3-3.87,3s-3.43-1.27-3.87-3C12.04,27.68,12,27.35,12,27 c0-0.55,0.45-1,1-1h6C19.55,26,20,26.45,20,27z" fill="#624F81"></path> </g> <g> <path d="M22,21v5c0,1.1-0.9,2-2,2h-8c-1.1,0-2-0.9-2-2v-5c0-0.55,0.45-1,1-1h10C21.55,20,22,20.45,22,21z" fill="#BF4D48"></path> </g> <g> <rect fill="#DB5E5B" height="2" width="12" x="10" y="23"></rect> </g> </g> <g id="Energy09"></g> <g id="Energy08"></g> <g id="Energy07"></g> <g id="Energy06"></g> <g id="Energy05"></g> <g id="Energy04"></g> <g id="Energy03"></g> <g id="Energy02"></g> <g id="Energy01"></g> </g></svg>