<svg version="1.1" id="prefix__Layer_1" xmlns="http://www.w3.org/2000/svg" viewBox="0 0 30 30" xml:space="preserve" fill="#000"><g id="prefix__SVGRepo_iconCarrier"><style></style><path d="M9 16V8c0-3.3 2.7-6 6-6h0c3.3 0 6 2.7 6 6v8" fill="none" stroke="#6a83ba" stroke-width="4" stroke-linecap="round" stroke-linejoin="round" stroke-miterlimit="10"/><path d="M22 29H8c-1.1 0-2-.9-2-2V16c0-1.1.9-2 2-2h14c1.1 0 2 .9 2 2v11c0 1.1-.9 2-2 2z" fill="#f2bb41" stroke="#f2bb41" stroke-width="2" stroke-linecap="round" stroke-linejoin="round" stroke-miterlimit="10"/><path d="M15 24h0c-.6 0-1-.4-1-1v-3c0-.6.4-1 1-1h0c.6 0 1 .4 1 1v3c0 .6-.4 1-1 1z" fill="#354c75" stroke="#354c75" stroke-width="2" stroke-linecap="round" stroke-linejoin="round" stroke-miterlimit="10"/></g></svg>