<svg height="200" width="200" xmlns="http://www.w3.org/2000/svg" viewBox="0 0 512 512"><path d="M432.802 81.441v393.827c0 20.277-17.119 36.732-38.31 36.732H38.311c-1.164 0-2.327-.083-3.491-.166-16.953-1.496-30.665-13.463-34.072-29.169-.332-1.829-.582-3.657-.665-5.568C0 476.515 0 475.85 0 475.268V81.441c0-2.576.249-4.986.748-7.396 1.829-8.31 6.482-15.541 13.047-20.859 2.327-1.829 4.82-3.491 7.645-4.737 5.069-2.41 10.803-3.74 16.87-3.74h356.181c8.144 0 15.79 2.41 22.023 6.648 3.158 2.161 5.983 4.737 8.31 7.645.415.499.831 1.08 1.246 1.662a40.088 40.088 0 013.075 5.152c.333.665.665 1.33.915 1.995.914 2.243 1.662 4.571 2.078 6.98.166.748.332 1.496.415 2.327.166 1.415.249 2.827.249 4.323z" fill="#c3d4d3"/><path d="M102.217 44.71V512H36.732c-.582 0-1.247 0-1.829-.083-16.953-.831-30.831-13.13-34.155-29.252-.332-1.829-.582-3.657-.665-5.568C0 476.515 0 475.85 0 475.268V81.441c0-2.576.249-4.986.748-7.396 1.745-8.56 6.482-16.039 13.047-21.358 2.41-1.829 4.986-3.491 7.812-4.654 3.387-1.601 7.155-2.445 11.045-2.883a39.69 39.69 0 012.46-.266c.55-.024 1.064-.175 1.62-.175h65.485z" fill="#313333"/><path fill="#b2536c" d="M188.857 234.29l-36.766-18.238-36.766 18.238V44.716h73.532z"/><path d="M390.314 21.362H55.945c-19.755 0-35.778 16.465-35.778 36.766v16.145c0 20.3 16.023 36.766 35.778 36.766h334.369c19.755 0 35.778-16.465 35.778-36.766V58.128c0-20.301-16.023-36.766-35.778-36.766z" fill="#c1c47f"/><path fill="#f2f2f2" d="M426.092 62.979H20.167v414.458H426.092z"/><linearGradient id="prefix__a" gradientUnits="userSpaceOnUse" x1="20.167" y1="475.275" x2="426.092" y2="475.275"><stop offset="0" stop-color="#fff"/><stop offset=".995" stop-color="#f6f5f5"/></linearGradient><path d="M405.993 492.817H34.189c-7.712 0-14.023-6.31-14.023-14.023v-7.039c0-7.712 6.31-14.023 14.023-14.023h377.88c7.712 0 14.023 6.31 14.023 14.023v.962c0 11.055-9.044 20.1-20.099 20.1z" fill="url(#prefix__a)"/><path d="M416.514 36.815v393.744c0 10.803-4.654 20.527-12.05 27.175-6.482 6.066-15.208 9.64-24.765 9.64H36.732a35.88 35.88 0 01-14.377-2.992 10.231 10.231 0 01-2.16-.997c-2.244-1.164-4.405-2.493-6.399-4.072-.25-.25-.582-.415-.831-.665a37.1 37.1 0 01-4.986-5.236C2.992 447.179 0 439.201 0 430.559V36.815C0 16.454 16.454 0 36.732 0h342.967c18.948 0 34.654 14.377 36.649 32.992v.083c.083 1.247.166 2.494.166 3.74z" fill="#c3d4d3"/><path d="M116.046.021v467.324H13.823V36.786C13.823 16.485 30.288.02 50.589.02h65.457z" fill="#c9d2a8"/><path d="M102.217 0v467.374H0V36.815C0 16.454 16.454 0 36.732 0h65.485z" fill="#505354"/><path fill="#ebe0ac" d="M290.413 124.714l-41.091-22.255-41.091 22.255V.021h82.182z"/><path d="M267.925 48.865h-14.044l-1.33-4.155-3.158-9.64h-.166l-3.075 9.64-1.33 4.155h-14.128v.166l11.385 8.394-1.828 5.568-2.659 8.394h.166l11.302-8.394.249-.166.249.166 11.302 8.394h.166l-2.659-8.394-1.828-5.568 11.385-8.394v-.166z" fill="#bdb595"/><path d="M432.802 81.441v393.827c0 20.277-17.119 36.732-38.31 36.732H36.732c-.582 0-1.247 0-1.829-.083-16.953-.831-30.831-13.13-34.155-29.252-.332-1.829-.582-3.657-.665-5.568C0 476.515 0 475.85 0 475.268v-14.293l7.978-7.563 5.817-5.485 6.399-6.067 82.023-77.618 13.795-13.047 253.881-240.169 46.621-44.128 4.072-3.906 4.238-3.989 1.246-1.163v2.825a40.088 40.088 0 013.075 5.152c.333.665.665 1.33.915 1.995.914 2.243 1.662 4.571 2.078 6.98.166.748.332 1.496.415 2.327a36.68 36.68 0 01.249 4.322z" opacity=".04" fill="#040000"/></svg>