<svg width="2030" height="835" viewBox="0 0 2030 835" fill="none" xmlns="http://www.w3.org/2000/svg">
<path fill-rule="evenodd" clip-rule="evenodd" d="M1844.04 602.814C1879.98 602.182 1915.61 604.152 1945.59 623.983C1983.2 648.863 2029.43 679.513 2028.14 724.591C2026.85 769.426 1978.71 796.741 1939.99 819.372C1911.69 835.911 1878.7 834.453 1846.11 830.971C1818.42 828.012 1789.96 822.116 1771.4 801.359C1753.73 781.606 1757.22 753.273 1753.18 727.08C1747.91 692.856 1724.19 655.47 1744.63 627.517C1765.58 598.862 1808.55 603.439 1844.04 602.814Z" fill="#E53E3E" fill-opacity="0.81"/>
<path fill-rule="evenodd" clip-rule="evenodd" d="M1360.02 699.667C1350.44 705.66 1347.89 719.978 1337.16 723.522C1317.15 730.131 1286.22 709.372 1275.6 727.547C1266.09 743.844 1301.73 754.071 1309.21 771.395C1315.49 785.965 1303.27 806.234 1314.44 817.528C1325.45 828.667 1344.49 820.588 1360.02 822.798C1379.25 825.536 1399.21 841.532 1416.13 832.002C1432.86 822.583 1430.06 797.777 1436.51 779.724C1443.22 760.94 1457.43 743.983 1454.64 724.236C1451.64 702.952 1441.99 676.358 1421.15 670.946C1398.81 665.145 1379.58 687.424 1360.02 699.667Z" fill="#80DDEF" fill-opacity="0.87"/>
<path fill-rule="evenodd" clip-rule="evenodd" d="M1832.21 0.852279C1846.67 0.811843 1863.1 -3.26489 1873.51 6.77695C1883.99 16.8878 1884.5 33.921 1881.2 48.1101C1878.47 59.8238 1865.91 64.8525 1857.91 73.8299C1848.93 83.9083 1845.35 100.032 1832.21 103.1C1817.53 106.531 1801.93 99.7563 1790.87 89.4895C1779.43 78.8645 1772.95 63.7313 1773 48.1101C1773.05 32.5383 1778.98 16.7154 1791.15 7.00733C1802.4 -1.97135 1817.83 0.892527 1832.21 0.852279Z" fill="#FFAE8A"/>
<path fill-rule="evenodd" clip-rule="evenodd" d="M501.165 552.104C516.291 551.107 530.941 557.371 542.039 567.698C553.561 578.421 563.343 592.905 561.849 608.574C560.428 623.47 547.395 634.067 534.921 642.332C524.994 648.911 513.068 648.404 501.165 648.785C488.615 649.187 474.453 653.026 465.176 644.564C455.731 635.95 457.049 621.357 457.078 608.574C457.108 595.834 457.502 582.791 465.341 572.749C474.158 561.456 486.868 553.045 501.165 552.104Z" fill="#E85555" fill-opacity="0.77"/>
<path fill-rule="evenodd" clip-rule="evenodd" d="M82.7475 191.696C94.9944 194.334 104.691 200.917 114.942 208.093C128.856 217.832 151.234 223.238 151.981 240.16C152.727 257.043 130.999 264.431 117.907 275.18C106.83 284.274 96.9361 294.83 82.7475 297.001C66.0388 299.557 48.7452 297.448 34.8296 287.888C17.9331 276.281 0.438018 260.6 0.00893352 240.16C-0.423925 219.54 14.9343 200.848 32.7829 190.393C47.7124 181.648 65.8191 188.049 82.7475 191.696Z" fill="#91E1F1"/>
</svg>
